<svg width="251" height="228" viewBox="0 0 251 228" fill="none" xmlns="http://www.w3.org/2000/svg">
<path d="M86.5149 217.304C61.7075 206.852 40.4128 192.559 26.214 169.409C14.4855 150.286 8.33377 129.436 7.21793 107.064C7.0463 103.623 7.6792 100.434 9.95108 97.7108C13.7837 93.1163 19.9285 93.6528 25.1531 99.0454C38.6482 112.974 56.2631 111.644 67.8228 95.7042C72.3243 89.4972 76.6486 83.1793 82.3013 77.9096C84.5237 75.8376 86.9395 74.1244 89.7371 72.9545C93.5598 71.356 97.1968 71.3907 100.484 74.2463C103.758 77.0898 104.43 80.7556 103.396 84.7114C101.855 90.5994 98.7613 95.7762 95.1377 100.575C87.2249 111.053 81.0408 122.205 78.3103 135.3C71.8227 166.414 90.537 195.44 121.804 200.452C143.518 203.932 162.042 195.949 177.719 180.973C188.21 170.95 195.535 158.62 202.836 146.279C204.022 144.274 205.103 142.196 206.421 140.281C210.83 133.876 217.731 130.735 223.915 132.202C231.323 133.958 236.43 139.681 237.867 147.463C239.145 154.389 237.266 160.638 234.31 166.746C218.176 200.094 190.727 218.288 155.233 225.47C131.63 230.246 108.941 226.245 86.5149 217.304Z" fill="url(#paint0_linear_75_281)"/>
<path d="M108.782 44.4835C95.3399 50.3834 87.0378 61.2499 78.9277 72.3105C73.223 80.0907 68.2582 88.4362 61.2766 95.2362C57.2304 99.1772 52.6406 102.069 46.8673 102.49C32.8339 103.512 23.0492 90.6768 26.7163 75.6542C31.4125 56.4154 42.8239 41.4114 57.8868 29.1807C80.95 10.4541 107.172 -0.496482 137.251 0.0173116C156.161 0.34031 173.355 7.1973 189.485 16.6475C198.245 21.7798 206.684 27.459 215.264 32.8983C217.514 34.3252 219.666 35.9319 222.005 37.1911C230.748 41.8966 239.031 48.9027 250.347 43.1149C247.677 48.8352 243.192 52.6803 238.745 56.3889C220.567 71.5458 200.622 71.7814 179.752 62.8667C170.996 59.1266 162.686 54.4887 154.762 49.2675C140.319 39.7515 125.216 37.952 108.782 44.4835Z" fill="url(#paint1_linear_75_281)"/>
<path d="M105.848 92.5675C116.382 85.0065 128.558 89.2673 130.418 100.807C131.319 106.399 128.56 112.007 123.37 115.135C118.715 117.941 111.806 117.486 107.397 114.083C102.979 110.673 100.797 104.595 102.176 99.4214C102.826 96.9833 103.915 94.7529 105.848 92.5675Z" fill="url(#paint2_linear_75_281)"/>
<path d="M43.1377 102.754C30.8792 100.312 26.3656 91.7322 26.0007 88.0002C23.8117 75.7867 30.297 63.062 33.5007 59.0002C35.2261 56.8127 55.1772 36.5977 90.2015 33.5443C118.221 31.1016 135.798 39.9469 142.001 43.0002C139.447 42.661 134.653 39.8599 122.501 41.5002C117.63 42.3985 104.113 48.6751 100.052 52.8824C97.7702 55.2466 82.5399 71.2027 75.9729 80.3628C70.1355 88.8444 55.3962 105.197 43.1377 102.754Z" fill="url(#paint3_linear_75_281)"/>
<path d="M112.657 75.5017C110.76 75.1898 109.237 75.0624 107.855 74.5526C103.502 72.9476 100.269 70.2111 100.181 65.1934C100.095 60.2946 103.349 57.7363 107.433 56.0777C112.158 54.1587 116.925 54.4495 121.474 56.6029C124.898 58.2238 127.632 60.5611 127.803 64.8303C127.984 69.3238 125.263 71.8167 121.787 73.8095C119.092 75.3543 116.136 75.6752 112.657 75.5017Z" fill="url(#paint4_linear_75_281)"/>
<path d="M146.58 77.9653C145.275 77.7097 144.228 77.6054 143.277 77.1876C140.285 75.8724 138.062 73.6301 138.001 69.5184C137.942 65.5042 140.179 63.4078 142.987 62.0488C146.236 60.4763 149.514 60.7145 152.642 62.4791C154.996 63.8073 156.876 65.7226 156.994 69.2209C157.118 72.9029 155.247 74.9458 152.857 76.5787C151.004 77.8446 148.972 78.1075 146.58 77.9653Z" fill="url(#paint5_linear_75_281)"/>
<path d="M3.18687 70.8235C7.46381 67.3569 11.686 67.1238 15.7265 69.8963C19.219 72.2927 20.5472 76.0702 19.7978 80.5247C19.0281 85.1 16.1771 87.5107 12.2066 88.6419C7.66376 89.9361 4.4509 87.5747 1.94028 83.9309C-1.12195 79.4865 -0.450574 75.1685 3.18687 70.8235Z" fill="url(#paint6_linear_75_281)"/>
<path d="M39.7495 121.264C29.9393 113.907 28.5018 105.5 29.0019 102.5C31.0019 104 37.5921 108.087 47.0625 107.673C58.9005 107.156 67.0018 97.4998 71.5018 90.4998C75.1294 84.857 81.5018 76.4998 88.0018 73.4998C92.5026 70.9437 102.842 70.5568 104.002 78.9998C105.452 89.5536 98.9733 96.3801 93.0019 103.5C89.5019 107.673 88.0019 113.5 83.0784 117.6C81.0019 119.33 79.7938 119.337 74.3929 122.404C67.6418 126.238 52.0121 130.46 39.7495 121.264Z" fill="url(#paint7_linear_75_281)"/>
<path d="M172 186C155.904 199.348 134.052 201.938 125.5 201.001C147.208 203.812 160.536 199.879 178.297 195.193C192.506 192.943 218.817 180.624 230 175C230.658 173.751 232.643 170.343 235.528 164.264C238.5 158 238.872 150.977 238.5 148C238 144 232.973 133.5 223.5 132C211.659 130.126 204.473 141.689 202.5 144.5C200.527 147.312 192.5 169 172 186Z" fill="url(#paint8_linear_75_281)"/>
<defs>
<linearGradient id="paint0_linear_75_281" x1="20" y1="179.5" x2="225.5" y2="175.5" gradientUnits="userSpaceOnUse">
<stop stop-color="#4EBECC"/>
<stop offset="1" stop-color="#5393C0"/>
</linearGradient>
<linearGradient id="paint1_linear_75_281" x1="250.347" y1="50.5119" x2="25.9414" y2="52.0352" gradientUnits="userSpaceOnUse">
<stop offset="0.193406" stop-color="#CDE5CD"/>
<stop offset="1" stop-color="#56C1D2"/>
</linearGradient>
<linearGradient id="paint2_linear_75_281" x1="130.586" y1="102.241" x2="101.766" y2="103.507" gradientUnits="userSpaceOnUse">
<stop offset="0.116214" stop-color="#E1F6D7"/>
<stop offset="1" stop-color="#53C3D1"/>
</linearGradient>
<linearGradient id="paint3_linear_75_281" x1="84.0007" y1="46.5002" x2="31.5007" y2="89.5002" gradientUnits="userSpaceOnUse">
<stop stop-color="#3776B5"/>
<stop offset="1" stop-color="#6FBBD2"/>
</linearGradient>
<linearGradient id="paint4_linear_75_281" x1="131.499" y1="57.5" x2="100.499" y2="60.5" gradientUnits="userSpaceOnUse">
<stop stop-color="#3C7FBB"/>
<stop offset="1" stop-color="#82D2E0"/>
</linearGradient>
<linearGradient id="paint5_linear_75_281" x1="147" y1="59.5" x2="138.021" y2="65.369" gradientUnits="userSpaceOnUse">
<stop stop-color="#3C7FBB"/>
<stop offset="1" stop-color="#82D2E0"/>
</linearGradient>
<linearGradient id="paint6_linear_75_281" x1="-9.07418e-09" y1="78.0501" x2="20" y2="78.9499" gradientUnits="userSpaceOnUse">
<stop stop-color="#57C3D4"/>
<stop offset="1" stop-color="#E2F5D6"/>
</linearGradient>
<linearGradient id="paint7_linear_75_281" x1="94.9556" y1="71.866" x2="40.621" y2="129.352" gradientUnits="userSpaceOnUse">
<stop stop-color="#62A6CA"/>
<stop offset="0.804188" stop-color="#3060AE"/>
</linearGradient>
<linearGradient id="paint8_linear_75_281" x1="238.619" y1="138.575" x2="125.5" y2="195.164" gradientUnits="userSpaceOnUse">
<stop stop-color="#E1EFD0"/>
<stop offset="1" stop-color="#C3E8DA"/>
</linearGradient>
</defs>
</svg>
